<svg id="Слой_1" data-name="Слой 1" xmlns="http://www.w3.org/2000/svg" viewBox="0 0 138.75 516"><defs><style>.cls-1{fill:#2c2c2c;}.cls-2{fill:#1d1d1d;}</style></defs><path class="cls-1" d="M99.81,447.31a1.82,1.82,0,0,1-.46-.06,1.48,1.48,0,0,1-.29-.12l-.14-.09-7.82-5.11a1.56,1.56,0,0,1-.71-1.32V115.78a1.54,1.54,0,0,1,.06-.43,1.2,1.2,0,0,1,.13-.33,1.54,1.54,0,0,1,.27-.36,2.61,2.61,0,0,1,.27-.22L99,109.33a1.58,1.58,0,0,1,1.72,0l7.82,5.11a1.63,1.63,0,0,1,.29.23,2.11,2.11,0,0,1,.26.35,1.2,1.2,0,0,1,.13.31,1.4,1.4,0,0,1,.06.45V440.61a1.56,1.56,0,0,1-.71,1.32L100.7,447l-.14.09a1.66,1.66,0,0,1-.31.12h0A.73.73,0,0,1,99.81,447.31Zm-6.28-7.55,4.71,3.08V121.76l-4.71-3.08Zm7.85-318V442.84l4.71-3.07V118.68Zm-6.55-6,5,3.25,5-3.25-5-3.26Z" transform="translate(-30.43 -2)"/><path class="cls-1" d="M99.81,518c-9.69,0-17.28-4.31-17.28-9.82V442.13c0-3.44,3-6.56,8-8.34a1.57,1.57,0,1,1,1,3c-3.66,1.3-5.94,3.36-5.94,5.38,0,3.17,5.81,6.71,14.14,6.71S114,445.3,114,442.13c0-2-2.28-4.08-5.94-5.38a1.57,1.57,0,1,1,1-3c5,1.78,8,4.9,8,8.34v66.05C117.09,513.69,109.5,518,99.81,518ZM85.67,447.86v60.32c0,3.16,5.81,6.68,14.14,6.68S114,511.34,114,508.18V447.86c-3.11,2.51-8.23,4.12-14.14,4.12S88.78,450.37,85.67,447.86Z" transform="translate(-30.43 -2)"/><path class="cls-2" d="M167.88,161.7a1.31,1.31,0,0,1-1.31-1.31v-37.3l-65.45,27.69v9.61a1.31,1.31,0,0,1-2.62,0v-9.61L33.05,123.09v37.3a1.31,1.31,0,0,1-2.62,0V3.31a1.31,1.31,0,1,1,2.62,0V49.12H98.5V3.31a1.31,1.31,0,0,1,2.62,0V49.12h65.45V3.31a1.31,1.31,0,0,1,2.62,0V160.39A1.31,1.31,0,0,1,167.88,161.7ZM38.2,122.43l58,24.54L79.42,122.43Zm82,0L103.41,147l58-24.54Zm-37.61,0L98.5,145.68V122.43Zm18.53,0v23.25L117,122.43ZM122,119.81h40.52l-29.9-15.53Zm-20.88,0h17.7l11.46-16.74L101.12,87.93Zm-20.32,0H98.5V87.93L69.34,103.07Zm-43.7,0H77.63L67,104.28Zm97-17.7L166.57,119V54.66ZM33.05,54.66V119l32.46-16.85Zm69.6,31.11,29.12,15.12L163.85,54ZM35.77,54l32.08,46.89L97,85.77Zm1.33-2.26L98.5,83.62V51.74Zm64,0V83.62l61.4-31.88Z" transform="translate(-30.43 -2)"/></svg>