<svg id="Слой_1" data-name="Слой 1" xmlns="http://www.w3.org/2000/svg" viewBox="0 0 295.24 518.66"><defs><style>.cls-1{fill:#2c2c2c;}.cls-2{fill:#1d1d1d;}</style></defs><path class="cls-1" d="M420.94,509.67a1.54,1.54,0,0,1-1.59-1.49V434l-107-32.64L276.4,492a1.61,1.61,0,0,1-2,.87,1.45,1.45,0,0,1-.94-1.91L309.92,399v0l36.5-91.94h0l36.5-91.91v0l36.49-91.91a1.15,1.15,0,0,1,.14-.27,1.51,1.51,0,0,1,.22-.28,1.48,1.48,0,0,1,.35-.25,1.53,1.53,0,0,1,.52-.18,2.23,2.23,0,0,1,.37,0h.18a1.64,1.64,0,0,1,.54.18,2.44,2.44,0,0,1,.31.22,1.59,1.59,0,0,1,.26.32,1.23,1.23,0,0,1,.12.26l36.5,91.92h0l36.5,91.9a0,0,0,0,0,0,0L532,399v0l36.51,91.91a1.47,1.47,0,0,1-.94,1.91,1.62,1.62,0,0,1-2-.87l-36-90.59L422.53,434v74.15A1.54,1.54,0,0,1,420.94,509.67Zm1.59-177.61v98.83L528.39,398.6,493,309.46Zm-109,66.54,105.86,32.29V332.06l-70.47-22.6ZM422.53,230v98.87l69.36-22.24L456.52,217.6ZM350,306.67l69.36,22.24V230l-34-12.44Zm36.48-91.87,32.88,12V132ZM422.53,132v94.84l32.88-12Z" transform="translate(-273.32 9)"/><path class="cls-2" d="M490,142.31a1.29,1.29,0,0,1-1.33-1.24V105.73L422.27,132v9.1a1.33,1.33,0,0,1-2.66,0V132l-66.38-26.24v35.34a1.33,1.33,0,0,1-2.65,0V-7.76A1.29,1.29,0,0,1,351.91-9a1.28,1.28,0,0,1,1.32,1.24V35.65h66.38V-7.76A1.29,1.29,0,0,1,420.94-9a1.29,1.29,0,0,1,1.33,1.24V35.65h66.37V-7.76A1.29,1.29,0,0,1,490-9a1.29,1.29,0,0,1,1.33,1.24V141.07A1.29,1.29,0,0,1,490,142.31ZM358.45,105.1l58.84,23.26-17-23.26Zm83.17,0-17,23.26,58.83-23.26Zm-38.15,0,16.14,22v-22Zm18.8,0v22l16.13-22Zm21.17-2.48h41.09L454.21,87.91Zm-21.17,0h18l11.62-15.86L422.27,72.42Zm-20.61,0h17.95V72.42L390,86.76Zm-44.32,0h41.1L387.67,87.91Zm98.38-16.77,32.92,16V40.9ZM353.23,40.9v60.92l32.93-16Zm70.59,29.48L453.35,84.7l32.54-44.43ZM356,40.27,388.53,84.7l29.53-14.32Zm1.35-2.14,62.27,30.2V38.13Zm64.93,0v30.2l62.26-30.2Z" transform="translate(-273.32 9)"/></svg>