<svg id="Слой_1" data-name="Слой 1" xmlns="http://www.w3.org/2000/svg" viewBox="0 0 111 197"><defs><style>.cls-1{fill:none;stroke:#1d1d1d;stroke-linecap:round;stroke-linejoin:round;stroke-dasharray:2 5;opacity:0.2;isolation:isolate;}</style></defs><path class="cls-1" d="M109,40.12l26,38m-26-38v-18m0,18h26m-26,0,52,27m-52-27v27m52-27-26,38m26-38v-18m0,18H135m26,0-52,27m52-27v27m-26,11,26-11m-26,11-26-11m26,11v4m0-4v-38m0,0v-18m-26,45h52m-52,0v15m52-15v15" transform="translate(-79.54 -21.62)"/><path class="cls-1" d="M135,63.12l-13.75,37.07M135,63.12l13.75,37.07M135,63.12v83.57m0,71.43V187.79m55,23.59-13.75-37.06M80,211.38l13.75-37.06m68.75-37.07-13.75-37.06m13.75,37.06,13.75,37.07m-13.75-37.07L135,146.69m-27.5-9.44,13.75-37.06m-13.75,37.06L93.79,174.32m13.75-37.07,27.5,9.44m-13.75-46.5L135,105.58l13.75-5.39m-55,74.13L135,187.79m41.25-13.47L135,187.79m0,0v-41.1" transform="translate(-79.54 -21.62)"/></svg>