<svg id="Слой_1" data-name="Слой 1" xmlns="http://www.w3.org/2000/svg" viewBox="0 0 145 32"><defs><style>.cls-1{fill:#eaeaea;}.cls-2{fill:#fff;}</style></defs><rect class="cls-1" width="35" height="32"/><path class="cls-2" d="M10.86,20H16.5V18.73H12.75L14.63,17c1.29-1.17,1.87-2,1.87-3a2.53,2.53,0,0,0-2.82-2.57,2.57,2.57,0,0,0-2.82,2.69h1.52a1.21,1.21,0,0,1,1.3-1.34A1.18,1.18,0,0,1,15,14.06c0,.56-.35,1-1.41,2.06l-2.72,2.61Zm10.26-3.12h2.16a1.81,1.81,0,0,1-2,1.88c-1.27,0-2.15-.86-2.15-2.64v-.64c0-1.83.77-2.64,2.15-2.64A1.78,1.78,0,0,1,23,14.18H24.6a3.2,3.2,0,0,0-3.36-2.69c-2.3,0-3.66,1.42-3.66,4v.64c0,2.58,1.4,4,3.66,4s3.42-1.3,3.42-3.83v-.62H21.12Z"/><rect class="cls-1" x="35" width="36" height="32"/><path class="cls-2" d="M48.86,20.11c2,0,3-1,3-2.5a2.05,2.05,0,0,0-1.21-1.94,2,2,0,0,0,1-1.8c0-1.41-1-2.38-2.82-2.38A2.57,2.57,0,0,0,46,14.18h1.51c.08-.89.53-1.34,1.31-1.34s1.31.45,1.31,1.12A1.08,1.08,0,0,1,49,15H47.84v1.28H49c.92,0,1.4.5,1.4,1.18s-.5,1.26-1.49,1.26-1.45-.49-1.49-1.58H45.86A2.73,2.73,0,0,0,48.86,20.11Zm7.62-3.23h2.16a1.81,1.81,0,0,1-2,1.88c-1.27,0-2.15-.86-2.15-2.64v-.64c0-1.83.77-2.64,2.15-2.64a1.77,1.77,0,0,1,1.8,1.34H60a3.2,3.2,0,0,0-3.36-2.69c-2.3,0-3.66,1.42-3.66,4v.64c0,2.58,1.41,4,3.66,4S60,18.81,60,16.28v-.62H56.48Z"/><rect class="cls-1" x="71" width="39" height="32"/><path class="cls-2" d="M82,20h5.16V18.73H83.45V11.6H82Zm4.32-7.13h2.58V20h1.44V12.87h2.58V11.6h-6.6ZM94,20h5.4V18.73h-4V16.32h3.24V15H95.39V12.87h4V11.6H94Z"/><rect class="cls-1" x="110" width="35" height="32"/><path class="cls-2" d="M121,16.29h1.39a1.62,1.62,0,0,1,1.37-.67,1.41,1.41,0,0,1,1.49,1.57,1.41,1.41,0,0,1-1.49,1.57,1.5,1.5,0,0,1-1.49-.9h-1.51a2.82,2.82,0,0,0,3,2.25,2.75,2.75,0,0,0,3-2.92A2.68,2.68,0,0,0,124,14.28a2.46,2.46,0,0,0-1.5.46l.14-1.87h3.58V11.6h-4.86Zm10.2.59h2.16a1.8,1.8,0,0,1-2,1.88c-1.27,0-2.14-.86-2.14-2.64v-.64c0-1.83.76-2.64,2.14-2.64a1.77,1.77,0,0,1,1.8,1.34h1.56a3.2,3.2,0,0,0-3.36-2.69c-2.3,0-3.66,1.42-3.66,4v.64c0,2.58,1.41,4,3.66,4s3.42-1.3,3.42-3.83v-.62H131.2Z"/></svg>