<svg id="Слой_1" data-name="Слой 1" xmlns="http://www.w3.org/2000/svg" viewBox="0 0 483.23 7.59"><defs><style>.cls-1{opacity:0.2;isolation:isolate;}.cls-2{fill:#1d1d1d;}</style></defs><g class="cls-1"><path class="cls-2" d="M330,9A1.21,1.21,0,0,1,329,7l2.76-3.15h-4.54a1.21,1.21,0,1,1,0-2.42h4.86a1.21,1.21,0,0,1,1.21,1.21,1,1,0,0,1,0,.3,1.26,1.26,0,0,1,.67.29,1.23,1.23,0,0,1,.11,1.72l-3.21,3.65A1.21,1.21,0,0,1,330,9ZM270.29,9a1.21,1.21,0,0,1-.91-2l3.2-3.65a1.22,1.22,0,1,1,1.83,1.6L271.2,8.58A1.21,1.21,0,0,1,270.29,9ZM210.63,9a1.22,1.22,0,0,1-.92-2l2.76-3.15h-4.2a1.21,1.21,0,0,1,0-2.42h4.86a1.22,1.22,0,0,1,1.22,1.21,1.22,1.22,0,0,1-.07.38,1.13,1.13,0,0,1,.35.21,1.22,1.22,0,0,1,.11,1.72l-3.2,3.65A1.23,1.23,0,0,1,210.63,9ZM151,9a1.21,1.21,0,0,1-.91-2l3.2-3.65a1.22,1.22,0,1,1,1.83,1.6l-3.2,3.65A1.23,1.23,0,0,1,151,9ZM91.3,9a1.21,1.21,0,0,1-.91-2l2.76-3.15H89.29a1.21,1.21,0,1,1,0-2.42h4.86a1.21,1.21,0,0,1,1.21,1.21,1.42,1.42,0,0,1-.12.54l.07,0a1.23,1.23,0,0,1,.11,1.72L92.21,8.58A1.21,1.21,0,0,1,91.3,9ZM31.64,9a1.21,1.21,0,0,1-.91-2l3.2-3.65a1.22,1.22,0,1,1,1.83,1.6L32.55,8.58A1.21,1.21,0,0,1,31.64,9ZM449.28,9a1.21,1.21,0,0,1-.91-2l2.76-3.14h-4.88a1.21,1.21,0,1,1,0-2.42h4.85a1.22,1.22,0,0,1,1.22,1.21,1.55,1.55,0,0,1,0,.31,1.21,1.21,0,0,1,1.12,2l-3.21,3.65A1.21,1.21,0,0,1,449.28,9ZM389.62,9a1.22,1.22,0,0,1-.92-2l3.21-3.64a1.21,1.21,0,1,1,1.82,1.6l-3.2,3.65A1.23,1.23,0,0,1,389.62,9ZM485.1,3.83h-4.86a1.21,1.21,0,1,1,0-2.42h4.86a1.21,1.21,0,0,1,0,2.42Zm-17,0h-4.86a1.21,1.21,0,1,1,0-2.42h4.86a1.21,1.21,0,0,1,0,2.42Zm-34,0h-4.85a1.21,1.21,0,1,1,0-2.42h4.85a1.21,1.21,0,1,1,0,2.42Zm-17,0h-4.86a1.21,1.21,0,1,1,0-2.42h4.86a1.21,1.21,0,0,1,0,2.42Zm-17,0h-4.86a1.21,1.21,0,1,1,0-2.42h4.86a1.21,1.21,0,0,1,0,2.42Zm-17,0h-4.86a1.21,1.21,0,1,1,0-2.42h4.86a1.21,1.21,0,0,1,0,2.42Zm-17,0h-4.85a1.21,1.21,0,1,1,0-2.42h4.85a1.21,1.21,0,1,1,0,2.42Zm-17,0h-4.85a1.21,1.21,0,1,1,0-2.42h4.85a1.21,1.21,0,1,1,0,2.42Zm-34,0h-4.86a1.21,1.21,0,1,1,0-2.42h4.86a1.21,1.21,0,0,1,0,2.42Zm-17,0h-4.86a1.21,1.21,0,1,1,0-2.42h4.86a1.21,1.21,0,0,1,0,2.42Zm-17,0h-4.85a1.21,1.21,0,1,1,0-2.42h4.85a1.21,1.21,0,1,1,0,2.42Zm-17,0h-4.85a1.21,1.21,0,1,1,0-2.42h4.85a1.21,1.21,0,1,1,0,2.42Zm-17,0h-4.86a1.21,1.21,0,0,1,0-2.42h4.86a1.21,1.21,0,1,1,0,2.42Zm-17,0h-4.86a1.21,1.21,0,0,1,0-2.42h4.86a1.21,1.21,0,1,1,0,2.42Zm-34,0h-4.85a1.21,1.21,0,1,1,0-2.42h4.85a1.21,1.21,0,1,1,0,2.42Zm-17,0h-4.86a1.21,1.21,0,1,1,0-2.42h4.86a1.21,1.21,0,1,1,0,2.42Zm-17,0h-4.86a1.21,1.21,0,0,1,0-2.42h4.86a1.21,1.21,0,1,1,0,2.42Zm-17,0h-4.86a1.21,1.21,0,0,1,0-2.42h4.86a1.21,1.21,0,1,1,0,2.42Zm-17,0h-4.86a1.21,1.21,0,0,1,0-2.42h4.86a1.21,1.21,0,1,1,0,2.42Zm-17,0h-4.85a1.21,1.21,0,1,1,0-2.42h4.85a1.21,1.21,0,1,1,0,2.42Zm-34,0H72.29a1.21,1.21,0,0,1,0-2.42h4.86a1.21,1.21,0,0,1,0,2.42Zm-17,0H55.29a1.21,1.21,0,0,1,0-2.42h4.86a1.21,1.21,0,1,1,0,2.42Zm-17,0H38.3a1.21,1.21,0,1,1,0-2.42h4.85a1.21,1.21,0,1,1,0,2.42Zm-17,0H21.3a1.21,1.21,0,1,1,0-2.42h4.85a1.21,1.21,0,1,1,0,2.42Zm-17,0H4.3a1.21,1.21,0,0,1,0-2.42H9.16a1.21,1.21,0,1,1,0,2.42Z" transform="translate(-3.09 -1.41)"/></g></svg>