<svg id="Слой_1" data-name="Слой 1" xmlns="http://www.w3.org/2000/svg" viewBox="0 0 490 14.63"><defs><style>.cls-1{fill:#1d1d1d;}</style></defs><path class="cls-1" d="M319.35,11.4a1.23,1.23,0,0,1-.8-.3,1.21,1.21,0,0,1-.11-1.72L327.36-.79H270.71L260.37,11a1.22,1.22,0,1,1-1.83-1.61L267.47-.79H210.81L200.47,11a1.22,1.22,0,0,1-1.83-1.61L207.57-.79H150.92L140.58,11a1.23,1.23,0,0,1-1.72.11,1.21,1.21,0,0,1-.11-1.72L147.67-.79H91L80.68,11A1.23,1.23,0,0,1,79,11.1a1.21,1.21,0,0,1-.11-1.72L87.77-.79H31.12L20.78,11A1.22,1.22,0,0,1,19,9.38L27.88-.79H1.22A1.22,1.22,0,0,1,0-2,1.22,1.22,0,0,1,1.22-3.23H488.78A1.22,1.22,0,0,1,490-2a1.22,1.22,0,0,1-1.22,1.22H450.4L440.07,11a1.22,1.22,0,0,1-1.84-1.61L447.16-.79H390.5L380.17,11a1.22,1.22,0,0,1-1.84-1.61L387.26-.79H330.61L320.27,11A1.23,1.23,0,0,1,319.35,11.4Z" transform="translate(0 3.23)"/></svg>