<svg id="Слой_1" data-name="Слой 1" xmlns="http://www.w3.org/2000/svg" viewBox="0 0 484.92 2.62"><defs><style>.cls-1{opacity:0.2;isolation:isolate;}.cls-2{fill:#1d1d1d;}</style></defs><g class="cls-1"><path class="cls-2" d="M485.85,6.51H480.6a1.31,1.31,0,0,1,0-2.62h5.25a1.31,1.31,0,1,1,0,2.62Zm-18.35,0h-5.24a1.31,1.31,0,0,1,0-2.62h5.24a1.31,1.31,0,1,1,0,2.62Zm-18.35,0h-5.24a1.31,1.31,0,0,1,0-2.62h5.24a1.31,1.31,0,1,1,0,2.62Zm-18.35,0h-5.24a1.31,1.31,0,0,1,0-2.62h5.24a1.31,1.31,0,1,1,0,2.62Zm-18.35,0h-5.24a1.31,1.31,0,0,1,0-2.62h5.24a1.31,1.31,0,1,1,0,2.62Zm-18.34,0h-5.25a1.31,1.31,0,0,1,0-2.62h5.25a1.31,1.31,0,1,1,0,2.62Zm-18.35,0h-5.25a1.31,1.31,0,0,1,0-2.62h5.25a1.31,1.31,0,1,1,0,2.62Zm-18.35,0h-5.24a1.31,1.31,0,0,1,0-2.62h5.24a1.31,1.31,0,1,1,0,2.62Zm-18.35,0h-5.24a1.31,1.31,0,0,1,0-2.62h5.24a1.31,1.31,0,1,1,0,2.62Zm-18.35,0h-5.24a1.31,1.31,0,0,1,0-2.62h5.24a1.31,1.31,0,1,1,0,2.62Zm-18.34,0h-5.25a1.31,1.31,0,0,1,0-2.62h5.25a1.31,1.31,0,1,1,0,2.62ZM284,6.51h-5.25a1.31,1.31,0,0,1,0-2.62H284a1.31,1.31,0,1,1,0,2.62Zm-18.35,0h-5.24a1.31,1.31,0,0,1,0-2.62h5.24a1.31,1.31,0,1,1,0,2.62Zm-18.35,0h-5.24a1.31,1.31,0,0,1,0-2.62h5.24a1.31,1.31,0,1,1,0,2.62ZM229,6.51h-5.24a1.31,1.31,0,0,1,0-2.62H229a1.31,1.31,0,1,1,0,2.62Zm-18.35,0h-5.24a1.31,1.31,0,0,1,0-2.62h5.24a1.31,1.31,0,1,1,0,2.62Zm-18.34,0H187a1.31,1.31,0,0,1,0-2.62h5.25a1.31,1.31,0,1,1,0,2.62Zm-18.35,0h-5.25a1.31,1.31,0,0,1,0-2.62h5.25a1.31,1.31,0,1,1,0,2.62Zm-18.35,0h-5.24a1.31,1.31,0,0,1,0-2.62h5.24a1.31,1.31,0,1,1,0,2.62Zm-18.35,0H132a1.31,1.31,0,0,1,0-2.62h5.24a1.31,1.31,0,1,1,0,2.62Zm-18.35,0h-5.24a1.31,1.31,0,0,1,0-2.62h5.24a1.31,1.31,0,1,1,0,2.62Zm-18.35,0H95.29a1.31,1.31,0,0,1,0-2.62h5.24a1.31,1.31,0,1,1,0,2.62Zm-18.34,0H76.94a1.31,1.31,0,0,1,0-2.62h5.25a1.31,1.31,0,1,1,0,2.62Zm-18.35,0H58.59a1.31,1.31,0,0,1,0-2.62h5.25a1.31,1.31,0,1,1,0,2.62Zm-18.35,0H40.25a1.31,1.31,0,0,1,0-2.62h5.24a1.31,1.31,0,0,1,0,2.62Zm-18.35,0H21.9a1.31,1.31,0,1,1,0-2.62h5.24a1.31,1.31,0,0,1,0,2.62Zm-18.35,0H3.55a1.31,1.31,0,0,1,0-2.62H8.79a1.31,1.31,0,1,1,0,2.62Z" transform="translate(-2.24 -3.89)"/></g></svg>