<svg id="Слой_1" data-name="Слой 1" xmlns="http://www.w3.org/2000/svg" viewBox="0 0 17.2 15.2"><defs><style>.cls-1{fill:#2c2c2c;}</style></defs><path class="cls-1" d="M24.36,24.05h-3.5a.6.6,0,0,1-.6-.6V19a.9.9,0,1,0-1.8,0v4.5a.6.6,0,0,1-.6.6H8.36a.6.6,0,0,1-.6-.6v-10a.84.84,0,0,1,.06-.24A.7.7,0,0,1,8,13l0,0,5-4a.64.64,0,0,1,.37-.13h6a.54.54,0,0,1,.22,0h0a.57.57,0,0,1,.13.08l5,4a.62.62,0,0,1,.22.47v10A.6.6,0,0,1,24.36,24.05Zm-2.9-1.2h2.3V13.74l-4.4-3.52L15,13.74v9.11h2.3V19a2.1,2.1,0,0,1,4.2,0ZM9,22.85h4.8v-8.8H9Zm1.11-10h4.08l3.5-2.8H13.57Z" transform="translate(-7.76 -8.85)"/></svg>