<svg id="Слой_1" data-name="Слой 1" xmlns="http://www.w3.org/2000/svg" viewBox="0 0 407.57 407.58"><defs><style>.cls-1{fill:#2c2c2c;}</style></defs><path class="cls-1" d="M249.18,454.24a11.53,11.53,0,0,1-11.47-11.59l.17-28.84a11.54,11.54,0,0,1,23.07.13l-.17,28.84A11.53,11.53,0,0,1,249.18,454.24Zm134.91-56.89a11.5,11.5,0,0,1-8.13-3.43l-19.11-19.33a11.53,11.53,0,0,1,16.39-16.21l19.12,19.34a11.53,11.53,0,0,1-8.27,19.63Zm-269.15-1.57a11.53,11.53,0,0,1-8-19.72l19.33-19.12a11.53,11.53,0,1,1,16.22,16.39l-19.33,19.12A11.5,11.5,0,0,1,114.94,395.78Zm134.69-18.44A127,127,0,0,1,123.48,249.71c.41-70,57.67-126.56,127.63-126.15A127,127,0,0,1,377.25,251.19C376.84,321.15,319.6,377.75,249.63,377.34ZM251,146.64A103.82,103.82,0,1,0,354.19,251.06,103.93,103.93,0,0,0,251,146.64ZM442.55,263.11l-28.83-.17a11.54,11.54,0,0,1,.13-23.07l28.84.17a11.54,11.54,0,0,1-.14,23.07ZM86.89,261l-28.84-.16a11.54,11.54,0,0,1,.13-23.08L87,238A11.54,11.54,0,0,1,86.89,261ZM366.33,147.31a11.54,11.54,0,0,1-8-19.74l19.34-19.12a11.53,11.53,0,0,1,16.2,16.41L374.49,144A11.46,11.46,0,0,1,366.33,147.31ZM135.62,146a11.47,11.47,0,0,1-8.13-3.42L108.37,123.2A11.54,11.54,0,1,1,124.78,107l19.12,19.34A11.54,11.54,0,0,1,135.62,146ZM251.25,98.57A11.52,11.52,0,0,1,239.79,87L240,58.13a11.54,11.54,0,0,1,23.08.14l-.17,28.83A11.53,11.53,0,0,1,251.25,98.57Z" transform="translate(-46.58 -46.66)"/></svg>