<svg id="Слой_1" data-name="Слой 1" xmlns="http://www.w3.org/2000/svg" viewBox="0 0 491 15.13"><defs><style>.cls-1{fill:#2c2c2c;}</style></defs><path class="cls-1" d="M489.54-5H1.46A1.46,1.46,0,0,1,0-6.49,1.47,1.47,0,0,1,1.46-8H489.54A1.47,1.47,0,0,1,491-6.49,1.46,1.46,0,0,1,489.54-5Z" transform="translate(0 7.96)"/><path class="cls-1" d="M11.23,7.17A11.24,11.24,0,0,1,0-4V-6.49A1.47,1.47,0,0,1,1.46-8,1.47,1.47,0,0,1,2.93-6.49V-4a8.31,8.31,0,0,0,8.3,8.3A8.31,8.31,0,0,0,19.52-4V-6.49A1.47,1.47,0,0,1,21-8a1.46,1.46,0,0,1,1.46,1.47V-4A11.23,11.23,0,0,1,11.23,7.17Z" transform="translate(0 7.96)"/><path class="cls-1" d="M30.75,7.17A11.24,11.24,0,0,1,19.52-4V-6.49A1.47,1.47,0,0,1,21-8a1.46,1.46,0,0,1,1.46,1.47V-4a8.31,8.31,0,0,0,8.3,8.3A8.32,8.32,0,0,0,39.05-4V-6.49A1.46,1.46,0,0,1,40.51-8,1.46,1.46,0,0,1,42-6.49V-4A11.23,11.23,0,0,1,30.75,7.17Z" transform="translate(0 7.96)"/><path class="cls-1" d="M50.27,7.17A11.23,11.23,0,0,1,39.05-4V-6.49A1.46,1.46,0,0,1,40.51-8,1.46,1.46,0,0,1,42-6.49V-4a8.32,8.32,0,0,0,8.3,8.3A8.31,8.31,0,0,0,58.57-4V-6.49A1.46,1.46,0,0,1,60-8,1.47,1.47,0,0,1,61.5-6.49V-4A11.24,11.24,0,0,1,50.27,7.17Z" transform="translate(0 7.96)"/><path class="cls-1" d="M69.79,7.17A11.23,11.23,0,0,1,58.57-4V-6.49A1.46,1.46,0,0,1,60-8,1.47,1.47,0,0,1,61.5-6.49V-4a8.31,8.31,0,0,0,8.29,8.3A8.31,8.31,0,0,0,78.09-4V-6.49A1.47,1.47,0,0,1,79.56-8,1.46,1.46,0,0,1,81-6.49V-4A11.23,11.23,0,0,1,69.79,7.17Z" transform="translate(0 7.96)"/><path class="cls-1" d="M89.32,7.17A11.24,11.24,0,0,1,78.09-4V-6.49A1.47,1.47,0,0,1,79.56-8,1.46,1.46,0,0,1,81-6.49V-4a8.31,8.31,0,0,0,8.3,8.3A8.31,8.31,0,0,0,97.61-4V-6.49A1.47,1.47,0,0,1,99.08-8a1.46,1.46,0,0,1,1.46,1.47V-4A11.23,11.23,0,0,1,89.32,7.17Z" transform="translate(0 7.96)"/><path class="cls-1" d="M108.84,7.17A11.24,11.24,0,0,1,97.61-4V-6.49A1.47,1.47,0,0,1,99.08-8a1.46,1.46,0,0,1,1.46,1.47V-4a8.31,8.31,0,0,0,8.3,8.3,8.31,8.31,0,0,0,8.3-8.3V-6.49A1.46,1.46,0,0,1,118.6-8a1.47,1.47,0,0,1,1.47,1.47V-4A11.24,11.24,0,0,1,108.84,7.17Z" transform="translate(0 7.96)"/><path class="cls-1" d="M128.36,7.17A11.23,11.23,0,0,1,117.14-4V-6.49A1.46,1.46,0,0,1,118.6-8a1.47,1.47,0,0,1,1.47,1.47V-4a8.31,8.31,0,0,0,8.29,8.3,8.31,8.31,0,0,0,8.3-8.3V-6.49A1.47,1.47,0,0,1,138.13-8a1.47,1.47,0,0,1,1.46,1.47V-4A11.24,11.24,0,0,1,128.36,7.17Z" transform="translate(0 7.96)"/><path class="cls-1" d="M147.89,7.17A11.24,11.24,0,0,1,136.66-4V-6.49A1.47,1.47,0,0,1,138.13-8a1.47,1.47,0,0,1,1.46,1.47V-4a8.31,8.31,0,0,0,8.3,8.3A8.31,8.31,0,0,0,156.18-4V-6.49A1.47,1.47,0,0,1,157.65-8a1.46,1.46,0,0,1,1.46,1.47V-4A11.23,11.23,0,0,1,147.89,7.17Z" transform="translate(0 7.96)"/><path class="cls-1" d="M167.41,7.17A11.24,11.24,0,0,1,156.18-4V-6.49A1.47,1.47,0,0,1,157.65-8a1.46,1.46,0,0,1,1.46,1.47V-4a8.31,8.31,0,0,0,8.3,8.3,8.31,8.31,0,0,0,8.3-8.3V-6.49A1.46,1.46,0,0,1,177.17-8a1.47,1.47,0,0,1,1.47,1.47V-4A11.24,11.24,0,0,1,167.41,7.17Z" transform="translate(0 7.96)"/><path class="cls-1" d="M186.93,7.17A11.23,11.23,0,0,1,175.71-4V-6.49A1.46,1.46,0,0,1,177.17-8a1.47,1.47,0,0,1,1.47,1.47V-4a8.31,8.31,0,0,0,8.29,8.3,8.31,8.31,0,0,0,8.3-8.3V-6.49A1.46,1.46,0,0,1,196.69-8a1.47,1.47,0,0,1,1.47,1.47V-4A11.24,11.24,0,0,1,186.93,7.17Z" transform="translate(0 7.96)"/><path class="cls-1" d="M206.46,7.17A11.24,11.24,0,0,1,195.23-4V-6.49A1.46,1.46,0,0,1,196.69-8a1.47,1.47,0,0,1,1.47,1.47V-4a8.31,8.31,0,0,0,8.3,8.3A8.31,8.31,0,0,0,214.75-4V-6.49A1.47,1.47,0,0,1,216.22-8a1.46,1.46,0,0,1,1.46,1.47V-4A11.23,11.23,0,0,1,206.46,7.17Z" transform="translate(0 7.96)"/><path class="cls-1" d="M226,7.17A11.24,11.24,0,0,1,214.75-4V-6.49A1.47,1.47,0,0,1,216.22-8a1.46,1.46,0,0,1,1.46,1.47V-4a8.31,8.31,0,0,0,8.3,8.3,8.32,8.32,0,0,0,8.3-8.3V-6.49A1.46,1.46,0,0,1,235.74-8a1.46,1.46,0,0,1,1.46,1.47V-4A11.23,11.23,0,0,1,226,7.17Z" transform="translate(0 7.96)"/><path class="cls-1" d="M245.5,7.17A11.23,11.23,0,0,1,234.28-4V-6.49A1.46,1.46,0,0,1,235.74-8a1.46,1.46,0,0,1,1.46,1.47V-4a8.32,8.32,0,0,0,8.3,8.3A8.31,8.31,0,0,0,253.8-4V-6.49A1.46,1.46,0,0,1,255.26-8a1.46,1.46,0,0,1,1.46,1.47V-4A11.23,11.23,0,0,1,245.5,7.17Z" transform="translate(0 7.96)"/><path class="cls-1" d="M265,7.17A11.23,11.23,0,0,1,253.8-4V-6.49A1.46,1.46,0,0,1,255.26-8a1.46,1.46,0,0,1,1.46,1.47V-4a8.32,8.32,0,0,0,8.3,8.3,8.31,8.31,0,0,0,8.3-8.3V-6.49A1.47,1.47,0,0,1,274.78-8a1.47,1.47,0,0,1,1.47,1.47V-4A11.24,11.24,0,0,1,265,7.17Z" transform="translate(0 7.96)"/><path class="cls-1" d="M284.55,7.17A11.24,11.24,0,0,1,273.32-4V-6.49A1.47,1.47,0,0,1,274.78-8a1.47,1.47,0,0,1,1.47,1.47V-4a8.31,8.31,0,0,0,8.3,8.3A8.31,8.31,0,0,0,292.84-4V-6.49A1.47,1.47,0,0,1,294.31-8a1.46,1.46,0,0,1,1.46,1.47V-4A11.23,11.23,0,0,1,284.55,7.17Z" transform="translate(0 7.96)"/><path class="cls-1" d="M304.07,7.17A11.24,11.24,0,0,1,292.84-4V-6.49A1.47,1.47,0,0,1,294.31-8a1.46,1.46,0,0,1,1.46,1.47V-4a8.31,8.31,0,0,0,8.3,8.3,8.32,8.32,0,0,0,8.3-8.3V-6.49A1.46,1.46,0,0,1,313.83-8a1.46,1.46,0,0,1,1.46,1.47V-4A11.23,11.23,0,0,1,304.07,7.17Z" transform="translate(0 7.96)"/><path class="cls-1" d="M323.59,7.17A11.23,11.23,0,0,1,312.37-4V-6.49A1.46,1.46,0,0,1,313.83-8a1.46,1.46,0,0,1,1.46,1.47V-4a8.32,8.32,0,0,0,8.3,8.3,8.31,8.31,0,0,0,8.3-8.3V-6.49A1.47,1.47,0,0,1,333.35-8a1.47,1.47,0,0,1,1.47,1.47V-4A11.24,11.24,0,0,1,323.59,7.17Z" transform="translate(0 7.96)"/><path class="cls-1" d="M343.11,7.17A11.23,11.23,0,0,1,331.89-4V-6.49A1.47,1.47,0,0,1,333.35-8a1.47,1.47,0,0,1,1.47,1.47V-4a8.31,8.31,0,0,0,8.29,8.3,8.31,8.31,0,0,0,8.3-8.3V-6.49A1.47,1.47,0,0,1,352.88-8a1.47,1.47,0,0,1,1.46,1.47V-4A11.24,11.24,0,0,1,343.11,7.17Z" transform="translate(0 7.96)"/><path class="cls-1" d="M362.64,7.17A11.24,11.24,0,0,1,351.41-4V-6.49A1.47,1.47,0,0,1,352.88-8a1.47,1.47,0,0,1,1.46,1.47V-4a8.31,8.31,0,0,0,8.3,8.3,8.32,8.32,0,0,0,8.3-8.3V-6.49A1.46,1.46,0,0,1,372.4-8a1.46,1.46,0,0,1,1.46,1.47V-4A11.23,11.23,0,0,1,362.64,7.17Z" transform="translate(0 7.96)"/><path class="cls-1" d="M382.16,7.17A11.23,11.23,0,0,1,370.94-4V-6.49A1.46,1.46,0,0,1,372.4-8a1.46,1.46,0,0,1,1.46,1.47V-4a8.31,8.31,0,0,0,8.3,8.3,8.31,8.31,0,0,0,8.3-8.3V-6.49A1.46,1.46,0,0,1,391.92-8a1.47,1.47,0,0,1,1.47,1.47V-4A11.24,11.24,0,0,1,382.16,7.17Z" transform="translate(0 7.96)"/><path class="cls-1" d="M401.68,7.17A11.23,11.23,0,0,1,390.46-4V-6.49A1.46,1.46,0,0,1,391.92-8a1.47,1.47,0,0,1,1.47,1.47V-4a8.31,8.31,0,0,0,8.29,8.3A8.31,8.31,0,0,0,410-4V-6.49A1.47,1.47,0,0,1,411.44-8a1.47,1.47,0,0,1,1.47,1.47V-4A11.24,11.24,0,0,1,401.68,7.17Z" transform="translate(0 7.96)"/><path class="cls-1" d="M421.21,7.17A11.24,11.24,0,0,1,410-4V-6.49A1.47,1.47,0,0,1,411.44-8a1.47,1.47,0,0,1,1.47,1.47V-4a8.31,8.31,0,0,0,8.3,8.3A8.31,8.31,0,0,0,429.5-4V-6.49A1.47,1.47,0,0,1,431-8a1.46,1.46,0,0,1,1.46,1.47V-4A11.23,11.23,0,0,1,421.21,7.17Z" transform="translate(0 7.96)"/><path class="cls-1" d="M440.73,7.17A11.24,11.24,0,0,1,429.5-4V-6.49A1.47,1.47,0,0,1,431-8a1.46,1.46,0,0,1,1.46,1.47V-4a8.31,8.31,0,0,0,8.3,8.3A8.31,8.31,0,0,0,449-4V-6.49A1.46,1.46,0,0,1,450.49-8,1.46,1.46,0,0,1,452-6.49V-4A11.23,11.23,0,0,1,440.73,7.17Z" transform="translate(0 7.96)"/><path class="cls-1" d="M460.25,7.17A11.23,11.23,0,0,1,449-4V-6.49A1.46,1.46,0,0,1,450.49-8,1.46,1.46,0,0,1,452-6.49V-4a8.32,8.32,0,0,0,8.3,8.3,8.31,8.31,0,0,0,8.3-8.3V-6.49A1.47,1.47,0,0,1,470-8a1.47,1.47,0,0,1,1.47,1.47V-4A11.24,11.24,0,0,1,460.25,7.17Z" transform="translate(0 7.96)"/><path class="cls-1" d="M479.78,7.17A11.24,11.24,0,0,1,468.55-4V-6.49A1.47,1.47,0,0,1,470-8a1.47,1.47,0,0,1,1.47,1.47V-4a8.31,8.31,0,0,0,8.3,8.3A8.31,8.31,0,0,0,488.07-4V-6.49A1.47,1.47,0,0,1,489.54-8,1.47,1.47,0,0,1,491-6.49V-4A11.23,11.23,0,0,1,479.78,7.17Z" transform="translate(0 7.96)"/></svg>