<svg id="Слой_1" data-name="Слой 1" xmlns="http://www.w3.org/2000/svg" viewBox="0 0 21.2 21.2"><defs><style>.cls-1{fill:#2c2c2c;}</style></defs><path class="cls-1" d="M16.3,27.05a.6.6,0,0,1-.6-.6V25a.6.6,0,0,1,.6-.6.6.6,0,0,1,.6.6v1.5A.6.6,0,0,1,16.3,27.05Zm7-2.95a.69.69,0,0,1-.43-.18l-1-1a.61.61,0,0,1,0-.85.6.6,0,0,1,.85,0l1,1a.6.6,0,0,1,0,.85A.59.59,0,0,1,23.32,24.1ZM9.32,24a.64.64,0,0,1-.43-.18.6.6,0,0,1,0-.85l1-1a.6.6,0,0,1,.85.85l-1,1A.59.59,0,0,1,9.32,24Zm7-1A6.6,6.6,0,1,1,23,16.49,6.61,6.61,0,0,1,16.32,23.05Zm.08-12a5.4,5.4,0,1,0,5.36,5.44A5.41,5.41,0,0,0,16.4,11.05Zm10,6.06h-1.5a.61.61,0,0,1,0-1.21h1.5a.6.6,0,0,1,.59.61A.59.59,0,0,1,26.36,17.11ZM7.86,17H6.36a.62.62,0,0,1-.6-.61.6.6,0,0,1,.61-.59h1.5a.59.59,0,0,1,.59.6A.6.6,0,0,1,7.86,17ZM22.4,11.09a.58.58,0,0,1-.42-.18.6.6,0,0,1,0-.85l1-1a.61.61,0,0,1,.85,0,.6.6,0,0,1,0,.85l-1,1A.61.61,0,0,1,22.4,11.09ZM10.4,11a.58.58,0,0,1-.42-.18l-1-1A.6.6,0,0,1,9,9a.61.61,0,0,1,.85,0l1,1a.6.6,0,0,1,0,.85A.57.57,0,0,1,10.4,11Zm6-2.46a.59.59,0,0,1-.59-.6V6.45a.6.6,0,0,1,1.2,0V8A.6.6,0,0,1,16.41,8.55Z" transform="translate(-5.76 -5.85)"/></svg>